<?xml version="1.0" standalone="no"?>
<!DOCTYPE svg PUBLIC "-//W3C//DTD SVG 1.1//EN"
"http://www.w3.org/Graphics/SVG/1.1/DTD/svg11.dtd">
<svg width="9.41276cm" height="36.5358cm" viewBox="-100.993 -5.66346 94.1276 365.358" xmlns="http://www.w3.org/2000/svg" version = "1.1">
<title>Copy of Digital Wallet.123dx</title>
<desc> made with 123D Design </desc>
<path d="M -91.1701 289.112 L -95.9038 289.112 L -95.9038 290.367 L -95.9038 290.396 L -95.9038 290.444 L -95.9038 290.517 L -95.9038 290.782 L -95.9038 291.39 L -95.9038 293.177 L -95.3695 293.177 L -95.343 293.177 L -95.343 291.648 L -95.343 291.132 L -95.343 290.911 L -95.343 290.852 L -95.343 290.814 L -95.343 289.673 L -16.6135 289.673 L -11.7049 289.673 L -11.7049 289.683 L -11.7049 289.74 L -11.7049 290.767 L -11.7049 292.928 L -11.7049 298.135 L -11.3598 298.135 L -11.144 298.135 L -11.144 292.583 L -11.144 289.432 L -11.144 289.112 z  M -95.9038 332.566 L -95.9038 343.087 L -81.1957 343.087 L -39.6621 343.087 L -39.6621 342.673 L -39.6621 342.526 L -87.3588 342.526 L -95.343 342.526 L -95.343 341.456 L -95.343 340.874 L -95.343 297.537 L -95.343 297.34 L -95.8774 297.34 L -95.9038 297.34 L -95.9038 318.333 L -95.9038 325.77 L -95.9038 329.282 L -95.9038 330.373 L -95.9038 331.189 L -95.9038 331.8 L -95.9038 332.249 z  M -11.7049 305.635 L -11.4035 305.635 L -11.144 305.635 L -11.144 322.962 L -11.144 342.813 L -11.144 343.087 L -15.4638 343.087 L -27.6621 343.087 L -27.6621 342.673 L -27.6621 342.526 L -13.993 342.526 L -11.7049 342.526 L -11.7049 342.387 L -11.7049 341.862 L -11.7049 333.557 L -11.2101 333.557 L -11.2101 332.77 L -11.2101 322.921 L -11.7049 322.921 L -11.7049 320.7 L -11.7049 314.094 L -11.7049 305.655 z  M -96.7146 11.6406 L -96.7146 12.0213 L -96.7146 12.5706 L -96.7146 60.2377 L -96.7146 64.5535 L -96.7146 64.5641 L -96.7146 64.5757 L -96.7146 64.5882 L -96.7146 64.6014 L -96.7146 64.6149 L -96.7146 64.6287 L -96.7146 64.9187 L -15.644 64.9187 L -11.9548 64.9187 L -11.9548 64.2533 L -11.9548 63.7026 L -11.9548 59.8764 L -11.9548 13.9513 L -11.9548 12.365 L -11.9548 10.9437 L -13.0882 10.9437 L -13.9117 10.9437 L -92.8554 10.9437 L -96.7146 10.9437 z  M -61.2901 191.46 L -87.0767 191.46 L -87.0767 162.293 L -87.0767 147.01 L -37.8632 147.01 L -12.0767 147.01 L -12.0767 176.177 L -12.0767 191.46 z  " fill= "none" stroke="rgb(0,0,255)" stroke-width="0.05mm" />
</svg>
